<svg width="24" height="25" viewBox="0 0 24 25" fill="none" xmlns="http://www.w3.org/2000/svg">
    <g clip-path="url(#clip0_1_2)">
        <path
            d="M8 4.5H21V6.5H8V4.5ZM4.5 7C4.10218 7 3.72064 6.84196 3.43934 6.56066C3.15804 6.27936 3 5.89782 3 5.5C3 5.10218 3.15804 4.72064 3.43934 4.43934C3.72064 4.15804 4.10218 4 4.5 4C4.89782 4 5.27936 4.15804 5.56066 4.43934C5.84196 4.72064 6 5.10218 6 5.5C6 5.89782 5.84196 6.27936 5.56066 6.56066C5.27936 6.84196 4.89782 7 4.5 7ZM4.5 14C4.10218 14 3.72064 13.842 3.43934 13.5607C3.15804 13.2794 3 12.8978 3 12.5C3 12.1022 3.15804 11.7206 3.43934 11.4393C3.72064 11.158 4.10218 11 4.5 11C4.89782 11 5.27936 11.158 5.56066 11.4393C5.84196 11.7206 6 12.1022 6 12.5C6 12.8978 5.84196 13.2794 5.56066 13.5607C5.27936 13.842 4.89782 14 4.5 14ZM4.5 20.9C4.10218 20.9 3.72064 20.742 3.43934 20.4607C3.15804 20.1794 3 19.7978 3 19.4C3 19.0022 3.15804 18.6206 3.43934 18.3393C3.72064 18.058 4.10218 17.9 4.5 17.9C4.89782 17.9 5.27936 18.058 5.56066 18.3393C5.84196 18.6206 6 19.0022 6 19.4C6 19.7978 5.84196 20.1794 5.56066 20.4607C5.27936 20.742 4.89782 20.9 4.5 20.9ZM8 11.5H21V13.5H8V11.5ZM8 18.5H21V20.5H8V18.5Z"
            fill="black" />
    </g>
    <defs>
        <clipPath id="clip0_1_2">
            <rect width="24" height="24" fill="white" transform="translate(0 0.5)" />
        </clipPath>
    </defs>
</svg>
